<svg width="27" height="31" viewBox="0 0 27 31" fill="none" xmlns="http://www.w3.org/2000/svg">
<path d="M26.6667 30.6667L19.6667 24L20.5067 26.6667H3.33333C2.44928 26.6667 1.60143 26.3155 0.976311 25.6904C0.351189 25.0652 0 24.2174 0 23.3333V3.33333C0 2.44928 0.351189 1.60143 0.976311 0.976311C1.60143 0.351189 2.44928 0 3.33333 0H23.3333C24.2174 0 25.0652 0.351189 25.6904 0.976311C26.3155 1.60143 26.6667 2.44928 26.6667 3.33333V30.6667ZM13.3333 7.73333C9.76 7.73333 7.25333 9.26667 7.25333 9.26667C8.62667 8.04 11.0267 7.33333 11.0267 7.33333L10.8 7.10667C8.54667 7.14667 6.50667 8.70667 6.50667 8.70667C4.21333 13.4933 4.36 17.6267 4.36 17.6267C6.22667 20.04 9 19.8667 9 19.8667L9.94667 18.6667C8.28 18.3067 7.22667 16.8267 7.22667 16.8267C7.22667 16.8267 9.73333 18.5333 13.3333 18.5333C16.9333 18.5333 19.44 16.8267 19.44 16.8267C19.44 16.8267 18.3867 18.3067 16.72 18.6667L17.6667 19.8667C17.6667 19.8667 20.44 20.04 22.3067 17.6267C22.3067 17.6267 22.4533 13.4933 20.16 8.70667C20.16 8.70667 18.12 7.14667 15.8667 7.10667L15.64 7.33333C15.64 7.33333 18.04 8.04 19.4133 9.26667C19.4133 9.26667 16.9067 7.73333 13.3333 7.73333ZM10.5733 12.7867C11.44 12.7867 12.1467 13.5467 12.1333 14.48C12.1333 15.4 11.44 16.1733 10.5733 16.1733C9.72 16.1733 9.02667 15.4 9.02667 14.48C9.02667 13.5467 9.70667 12.7867 10.5733 12.7867ZM16.1333 12.7867C17 12.7867 17.6933 13.5467 17.6933 14.48C17.6933 15.4 17 16.1733 16.1333 16.1733C15.28 16.1733 14.5867 15.4 14.5867 14.48C14.5867 13.5467 15.2667 12.7867 16.1333 12.7867Z" fill="black"/>
</svg>
