<svg width="32" height="32" viewBox="0 0 32 32" fill="none" xmlns="http://www.w3.org/2000/svg">
<path d="M32 26.6665C32 27.6019 31.8027 28.469 31.4866 29.2319L21.3829 14.1591L31.377 2.50041C31.7658 3.32304 32 4.28935 32 5.33357V26.6665ZM16 16.8959L29.9066 0.671994C29.3359 0.255449 28.6933 0 28.0001 0H3.99998C3.30591 0 2.66309 0.255449 2.09473 0.671994L16 16.8959ZM19.8771 15.9144L16.6581 19.6721C16.4698 19.8908 16.2353 20 16 20C15.7646 20 15.5301 19.8908 15.3418 19.6721L12.1221 15.9142L1.89061 31.1797C2.50388 31.6927 3.22261 32 3.99991 32H28.0001C28.7773 32 29.4963 31.6927 30.1094 31.1797L19.8771 15.9144ZM0.623102 2.50032C0.234389 3.32295 0 4.28926 0 5.33357V26.6666C0 27.602 0.196401 28.4691 0.51369 29.232L10.6162 14.1565L0.623102 2.50032Z" fill="black"/>
</svg>
