<svg width="553" height="206" viewBox="0 0 553 206" fill="none" xmlns="http://www.w3.org/2000/svg">
<g clip-path="url(#clip0_263_13)">
<path d="M285.4 67.9996L311.7 66.2996C312.3 70.5996 313.4 73.7996 315.2 76.0996C318.1 79.6996 322.1 81.4996 327.4 81.4996C331.3 81.4996 334.4 80.5996 336.5 78.6996C338.5 77.1996 339.7 74.7996 339.7 72.2996C339.7 69.8996 338.6 67.5996 336.7 66.0996C334.7 64.2996 330 62.4996 322.6 60.8996C310.5 58.1996 301.8 54.5996 296.7 49.9996C291.6 45.6996 288.7 39.3996 288.9 32.6996C288.9 28.0996 290.3 23.4996 292.9 19.6996C295.9 15.3996 300 11.9996 304.9 10.0996C310.2 7.79961 317.6 6.59961 326.9 6.59961C338.3 6.59961 347 8.69961 353 12.9996C359 17.1996 362.6 23.9996 363.7 33.2996L337.7 34.7996C337 30.7996 335.6 27.8996 333.3 25.9996C331 24.0996 328 23.1996 324.1 23.1996C320.9 23.1996 318.5 23.8996 316.9 25.1996C315.4 26.3996 314.4 28.1996 314.5 30.1996C314.5 31.6996 315.3 33.0996 316.5 33.9996C317.8 35.1996 320.9 36.2996 325.8 37.2996C337.9 39.8996 346.5 42.4996 351.8 45.1996C357.1 47.8996 360.9 51.1996 363.2 55.0996C365.6 59.0996 366.8 63.6996 366.7 68.3996C366.7 73.9996 365.1 79.5996 361.9 84.2996C358.6 89.1996 354 92.9996 348.6 95.2996C342.9 97.7996 335.7 99.0996 327.1 99.0996C311.9 99.0996 301.4 96.1996 295.5 90.2996C289.6 84.3996 286.1 76.9996 285.4 67.9996ZM6.3 97.5996V8.19961H52.4C60.9 8.19961 67.5 8.89961 72 10.3996C76.4 11.7996 80.3 14.6996 82.9 18.5996C85.8 22.8996 87.2 27.8996 87.1 33.0996C87.4 41.8996 82.9 50.2996 75.2 54.6996C72.2 56.3996 68.9 57.5996 65.5 58.1996C68 58.8996 70.5 60.0996 72.7 61.4996C74.4 62.8996 75.8 64.4996 77.1 66.1996C78.6 67.8996 79.9 69.7996 81 71.7996L94.4 97.6996H63L48.2 70.1996C46.3 66.6996 44.7 64.3996 43.2 63.2996C41.2 61.8996 38.8 61.1996 36.4 61.1996H34V97.4996H6.3V97.5996ZM34 44.3996H45.7C48.2 44.1996 50.6 43.7996 53 43.1996C54.8 42.8996 56.4 41.8996 57.5 40.3996C60.2 36.7996 59.8 31.6996 56.5 28.5996C54.7 27.0996 51.2 26.2996 46.2 26.2996H34V44.3996ZM0 174.2L26.3 172.5C26.9 176.8 28 180 29.8 182.3C32.6 185.9 36.7 187.8 42 187.8C45.9 187.8 49 186.9 51.1 185C53.1 183.4 54.3 181.1 54.3 178.6C54.3 176.2 53.2 173.9 51.3 172.4C49.3 170.6 44.6 168.8 37.1 167.2C25 164.5 16.3 160.9 11.2 156.3C6.1 152 3.2 145.7 3.4 139C3.4 134.4 4.8 129.8 7.4 126C10.4 121.7 14.5 118.3 19.4 116.4C24.7 114.1 32.1 112.9 41.4 112.9C52.8 112.9 61.5 115 67.5 119.3C73.5 123.6 77 130.3 78.1 139.6L52.1 141.1C51.4 137.1 50 134.2 47.7 132.3C45.5 130.4 42.4 129.5 38.5 129.6C35.3 129.6 32.9 130.3 31.3 131.7C29.7 132.9 28.8 134.7 28.9 136.7C28.9 138.2 29.7 139.6 30.9 140.5C32.2 141.7 35.3 142.8 40.2 143.8C52.3 146.4 60.9 149 66.2 151.7C71.5 154.4 75.3 157.7 77.6 161.6C80 165.6 81.2 170.2 81.2 174.8C81.2 180.4 79.5 185.9 76.4 190.6C73.1 195.5 68.5 199.3 63.1 201.6C57.4 204.1 50.2 205.4 41.6 205.4C26.4 205.4 15.9 202.5 10 196.6C4.1 190.6 0.8 183.2 0 174.2Z" fill="white"/>
<path d="M133 167.2L157.2 174.5C155.9 180.6 153.2 186.4 149.5 191.5C146.1 196 141.6 199.5 136.5 201.8C131.3 204.1 124.7 205.3 116.7 205.3C107 205.3 99.0002 203.9 92.9002 201.1C86.7002 198.3 81.4002 193.3 76.9002 186.2C72.4002 179.1 70.2002 170 70.2002 158.9C70.2002 144.1 74.1002 132.7 82.0002 124.8C89.9002 116.9 101 112.9 115.4 112.9C126.7 112.9 135.5 115.2 142 119.7C148.4 124.3 153.2 131.3 156.4 140.7L132 146.1C131.4 144 130.5 141.9 129.3 140.1C127.8 138 125.9 136.4 123.6 135.2C121.3 134 118.7 133.5 116.1 133.5C109.8 133.5 105 136 101.7 141.1C99.2002 144.8 97.9002 150.7 97.9002 158.7C97.9002 168.6 99.4002 175.4 102.4 179.1C105.4 182.8 109.6 184.6 115.1 184.6C120.4 184.6 124.4 183.1 127.1 180.2C129.8 177.1 131.8 172.8 133 167.2ZM189.5 114.4H217.1V145.7H247.3V114.4H275.1V203.8H247.3V167.6H217.1V203.8H189.5V114.4Z" fill="white"/>
<path d="M271.3 159.1C271.3 144.5 275.4 133.1 283.5 125C291.6 116.9 303 112.8 317.5 112.8C332.4 112.8 343.8 116.8 351.9 124.8C360 132.8 364 144 364 158.4C364 168.9 362.2 177.4 358.7 184.1C355.3 190.7 350 196.1 343.5 199.7C336.8 203.4 328.5 205.3 318.6 205.3C308.5 205.3 300.2 203.7 293.6 200.5C286.8 197.1 281.2 191.8 277.5 185.3C273.4 178.3 271.3 169.6 271.3 159.1ZM298.9 159.2C298.9 168.2 300.6 174.7 303.9 178.7C307.2 182.6 311.8 184.6 317.6 184.6C323.5 184.6 328.1 182.7 331.4 178.8C334.7 174.9 336.3 168 336.3 158C336.3 149.6 334.6 143.4 331.2 139.6C327.8 135.7 323.2 133.8 317.4 133.8C312.3 133.6 307.4 135.8 304 139.7C300.6 143.6 298.9 150.1 298.9 159.2ZM392.3 159.1C392.3 144.5 396.4 133.1 404.5 125C412.6 116.9 424 112.8 438.5 112.8C453.4 112.8 464.9 116.8 472.9 124.8C480.9 132.8 485 144 485 158.4C485 168.9 483.2 177.4 479.7 184.1C476.3 190.7 471 196.1 464.5 199.7C457.8 203.4 449.5 205.3 439.6 205.3C429.5 205.3 421.2 203.7 414.6 200.5C407.8 197.1 402.2 191.8 398.5 185.3C394.4 178.3 392.3 169.6 392.3 159.1ZM419.9 159.2C419.9 168.2 421.6 174.7 424.9 178.7C428.2 182.6 432.8 184.6 438.6 184.6C444.5 184.6 449.1 182.7 452.4 178.8C455.7 174.9 457.3 168 457.3 158C457.3 149.6 455.6 143.4 452.2 139.6C448.8 135.7 444.2 133.8 438.4 133.8C433.3 133.6 428.3 135.8 425 139.7C421.6 143.6 419.9 150.1 419.9 159.2Z" fill="white"/>
<path d="M482.1 114.4H509.7V181.8H552.8V203.8H482V114.4H482.1Z" fill="white"/>
<path d="M451.678 109.24C479.466 88.3003 488.034 52.8036 470.817 29.9563C453.6 7.10896 417.116 5.56275 389.329 26.5027C361.542 47.4427 352.973 82.9394 370.19 105.787C387.408 128.634 423.891 130.18 451.678 109.24Z" fill="white"/>
<mask id="mask0_263_13" style="mask-type:luminance" maskUnits="userSpaceOnUse" x="361" y="11" width="119" height="113">
<path d="M451.678 109.24C479.466 88.3003 488.034 52.8036 470.817 29.9563C453.6 7.10896 417.116 5.56275 389.329 26.5027C361.542 47.4427 352.973 82.9394 370.19 105.787C387.408 128.634 423.891 130.18 451.678 109.24Z" fill="white"/>
</mask>
<g mask="url(#mask0_263_13)">
<path d="M299.324 56.541L442.917 -51.6678L542.279 80.1851L398.686 188.394L299.324 56.541Z" fill="white"/>
<mask id="mask1_263_13" style="mask-type:luminance" maskUnits="userSpaceOnUse" x="299" y="-52" width="244" height="241">
<path d="M299.324 56.541L442.917 -51.6678L542.279 80.1851L398.686 188.394L299.324 56.541Z" fill="white"/>
</mask>
<g mask="url(#mask1_263_13)">
<path d="M451.678 109.24C479.466 88.3003 488.034 52.8036 470.817 29.9563C453.6 7.10896 417.116 5.56275 389.329 26.5027C361.542 47.4427 352.973 82.9394 370.19 105.787C387.408 128.634 423.891 130.18 451.678 109.24Z" fill="white"/>
<mask id="mask2_263_13" style="mask-type:luminance" maskUnits="userSpaceOnUse" x="361" y="11" width="119" height="113">
<path d="M451.678 109.24C479.466 88.3003 488.034 52.8036 470.817 29.9563C453.6 7.10896 417.116 5.56275 389.329 26.5027C361.542 47.4427 352.973 82.9394 370.19 105.787C387.408 128.634 423.891 130.18 451.678 109.24Z" fill="white"/>
</mask>
<g mask="url(#mask2_263_13)">
<path d="M339.31 65.3447L439.858 -10.4238L502.266 72.3947L401.718 148.163L339.31 65.3447Z" fill="black"/>
<mask id="mask3_263_13" style="mask-type:luminance" maskUnits="userSpaceOnUse" x="339" y="-11" width="164" height="160">
<path d="M339.31 65.3447L439.858 -10.4238L502.266 72.3947L401.718 148.163L339.31 65.3447Z" fill="white"/>
</mask>
<g mask="url(#mask3_263_13)">
<path d="M451.677 109.24C479.465 88.3003 488.033 52.8036 470.816 29.9563C453.599 7.10896 417.115 5.56275 389.328 26.5027C361.541 47.4427 352.972 82.9394 370.189 105.787C387.407 128.634 423.89 130.18 451.677 109.24Z" fill="black" stroke="white" stroke-width="4" stroke-miterlimit="10"/>
</g>
<mask id="mask4_263_13" style="mask-type:luminance" maskUnits="userSpaceOnUse" x="353" y="-6" width="136" height="150">
<path d="M353.638 115.083L388.34 -5.93986L488.023 22.6437L453.321 143.667L353.638 115.083Z" fill="white"/>
</mask>
<g mask="url(#mask4_263_13)">
<path d="M339.31 65.3457L439.858 -10.4228L502.266 72.3957L401.718 148.164L339.31 65.3457Z" stroke="white" stroke-width="4" stroke-miterlimit="10"/>
</g>
<path d="M451.678 109.241C479.466 88.3013 488.034 52.8046 470.817 29.9573C453.6 7.10993 417.116 5.56372 389.329 26.5037C361.542 47.4437 352.973 82.9404 370.19 105.788C387.408 128.635 423.891 130.181 451.678 109.241Z" stroke="white" stroke-width="4" stroke-miterlimit="10"/>
<path d="M339.31 65.3447L439.858 -10.4238L502.266 72.3947L401.718 148.163L339.31 65.3447Z" fill="black"/>
<mask id="mask5_263_13" style="mask-type:luminance" maskUnits="userSpaceOnUse" x="339" y="-11" width="164" height="160">
<path d="M339.31 65.3447L439.858 -10.4238L502.266 72.3947L401.718 148.163L339.31 65.3447Z" fill="white"/>
</mask>
<g mask="url(#mask5_263_13)">
<path d="M451.677 109.24C479.465 88.3003 488.033 52.8036 470.816 29.9563C453.599 7.10896 417.115 5.56275 389.328 26.5027C361.541 47.4427 352.972 82.9394 370.189 105.787C387.407 128.634 423.89 130.18 451.677 109.24Z" fill="black" stroke="white" stroke-width="4" stroke-miterlimit="10"/>
</g>
<mask id="mask6_263_13" style="mask-type:luminance" maskUnits="userSpaceOnUse" x="353" y="-6" width="136" height="150">
<path d="M353.638 115.083L388.34 -5.93986L488.023 22.6437L453.321 143.667L353.638 115.083Z" fill="white"/>
</mask>
<g mask="url(#mask6_263_13)">
<path d="M339.31 65.3457L439.858 -10.4228L502.266 72.3957L401.718 148.164L339.31 65.3457Z" stroke="white" stroke-width="4" stroke-miterlimit="10"/>
</g>
<path d="M299.324 56.541L442.917 -51.6678L542.279 80.1851L398.686 188.394L299.324 56.541Z" stroke="white" stroke-width="4" stroke-miterlimit="10"/>
</g>
<path d="M451.678 109.24C479.466 88.3003 488.034 52.8036 470.817 29.9563C453.6 7.10896 417.116 5.56275 389.329 26.5027C361.542 47.4427 352.973 82.9394 370.19 105.787C387.408 128.634 423.891 130.18 451.678 109.24Z" stroke="white" stroke-width="4" stroke-miterlimit="10"/>
<path d="M392.399 61.3L402.399 54.3L414.699 71.8C416.799 74.6 418.399 77.6 419.599 80.9C420.299 83.4 420.099 86.1 419.099 88.5C417.799 91.5 415.699 94 412.899 95.8C409.599 98.1 406.799 99.4 404.399 99.8C402.099 100.2 399.699 99.8 397.499 98.8C395.099 97.6 392.999 95.9 391.399 93.7L399.999 85.7C400.699 86.8 401.599 87.8 402.599 88.6C403.299 89.1 404.099 89.4 404.999 89.4C405.699 89.4 406.399 89.1 406.899 88.7C407.899 88.1 408.599 86.9 408.499 85.7C408.199 84 407.499 82.3 406.399 81L392.399 61.3ZM422.399 72.4L431.499 65.2C432.499 66.4 433.799 67.3 435.199 67.8C437.199 68.4 439.299 68 440.999 66.7C442.199 65.9 443.199 64.8 443.599 63.4C444.199 61.6 443.199 59.6 441.399 59C441.099 58.9 440.799 58.8 440.499 58.8C439.299 58.7 437.199 59.2 434.099 60.5C428.999 62.6 424.999 63.4 421.999 63.1C419.099 62.8 416.399 61.3 414.799 58.8C413.599 57.1 412.999 55.1 412.899 53.1C412.899 50.8 413.499 48.5 414.799 46.6C416.699 43.9 418.999 41.6 421.799 39.8C425.999 36.9 429.699 35.5 432.899 35.5C436.099 35.5 439.099 37 441.899 40.1L432.899 47.2C431.099 44.9 427.699 44.4 425.399 46.2L425.099 46.5C424.099 47.1 423.399 48 422.999 49.1C422.699 49.9 422.899 50.8 423.399 51.5C423.799 52 424.399 52.4 425.099 52.4C425.899 52.5 427.299 52.1 429.299 51.2C434.299 49.1 438.099 47.9 440.699 47.5C442.899 47.1 445.199 47.3 447.299 48.2C449.199 49 450.799 50.4 451.899 52.1C453.299 54.1 454.099 56.5 454.199 59C454.299 61.6 453.599 64.1 452.199 66.3C450.399 69 448.099 71.3 445.399 73.1C439.899 76.9 435.399 78.5 431.799 77.9C427.899 77.3 424.699 75.3 422.399 72.4Z" fill="white"/>
</g>
</g>
</g>
<defs>
<clipPath id="clip0_263_13">
<rect width="552.8" height="205.3" fill="white"/>
</clipPath>
</defs>
</svg>
