<svg width="32" height="32" viewBox="0 0 32 32" fill="none" xmlns="http://www.w3.org/2000/svg">
<path d="M2.41939 20.8H9.87504C9.69519 19.2838 9.6 17.6711 9.6 16C9.6 14.3289 9.69519 12.7162 9.87504 11.2H2.41939C1.88874 12.7013 1.6 14.317 1.6 16C1.6 17.6831 1.88874 19.2987 2.41939 20.8ZM3.09683 22.4C5.00145 26.2326 8.56332 29.0962 12.8448 30.0533C11.5982 28.3564 10.6435 25.6594 10.102 22.4H3.09683ZM29.5806 20.8C30.1113 19.2987 30.4 17.6831 30.4 16C30.4 14.317 30.1113 12.7013 29.5806 11.2H22.125C22.3048 12.7162 22.4 14.3289 22.4 16C22.4 17.6711 22.3048 19.2838 22.125 20.8H29.5806ZM28.9032 22.4H21.898C21.3565 25.6594 20.4018 28.3564 19.1552 30.0533C23.4367 29.0962 26.9986 26.2326 28.9032 22.4ZM11.495 20.8H20.505C20.6944 19.2998 20.8 17.6845 20.8 16C20.8 14.3155 20.6944 12.7002 20.505 11.2H11.495C11.3056 12.7002 11.2 14.3155 11.2 16C11.2 17.6845 11.3056 19.2998 11.495 20.8ZM11.736 22.4C12.5715 27.1485 14.2689 30.4 16 30.4C17.7311 30.4 19.4285 27.1485 20.264 22.4H11.736ZM3.09683 9.6H10.102C10.6435 6.34058 11.5982 3.64356 12.8448 1.94673C8.56332 2.90381 5.00145 5.76745 3.09683 9.6ZM28.9032 9.6C26.9986 5.76745 23.4367 2.90381 19.1552 1.94673C20.4018 3.64356 21.3565 6.34058 21.898 9.6H28.9032ZM11.736 9.6H20.264C19.4285 4.85147 17.7311 1.6 16 1.6C14.2689 1.6 12.5715 4.85147 11.736 9.6ZM16 32C7.16344 32 0 24.8366 0 16C0 7.16344 7.16344 0 16 0C24.8366 0 32 7.16344 32 16C32 24.8366 24.8366 32 16 32Z" fill="black"/>
</svg>
