<svg width="33" height="32" viewBox="0 0 33 32" fill="none" xmlns="http://www.w3.org/2000/svg">
<path d="M6.40225 27.201L4.15625 2H28.8442L26.5952 27.197L16.4852 30L6.40225 27.201Z" fill="#1572B6"/>
<path d="M16.5 27.8575L24.67 25.5925L26.592 4.06055H16.5V27.8575Z" fill="#33A9DC"/>
<path d="M16.5 13.1906H20.59L20.872 10.0256H16.5V6.93457H16.511H24.25L24.176 7.76357L23.417 16.2816H16.5V13.1906Z" fill="white"/>
<path d="M16.5192 21.2181L16.5052 21.2221L13.0632 20.2921L12.8432 17.8271H11.1702H9.74023L10.1732 22.6801L16.5042 24.4381L16.5192 24.4341V21.2181Z" fill="#EBEBEB"/>
<path d="M20.3268 16.1514L19.9548 20.2904L16.5078 21.2204V24.4364L22.8438 22.6804L22.8908 22.1584L23.4278 16.1514H20.3268Z" fill="white"/>
<path d="M16.5106 6.93457V8.85457V10.0176V10.0256H9.05458H9.04458L8.98258 9.33057L8.84158 7.76357L8.76758 6.93457H16.5106Z" fill="#EBEBEB"/>
<path d="M16.5002 13.1914V15.1114V16.2744V16.2824H13.1112H13.1012L13.0392 15.5874L12.8992 14.0204L12.8252 13.1914H16.5002Z" fill="#EBEBEB"/>
</svg>
