<svg width="33" height="32" viewBox="0 0 33 32" fill="none" xmlns="http://www.w3.org/2000/svg">
<path d="M29.972 14.7534L17.747 2.52844C17.5797 2.36064 17.381 2.22749 17.1622 2.13664C16.9434 2.04579 16.7089 1.99902 16.472 1.99902C16.2351 1.99902 16.0005 2.04579 15.7817 2.13664C15.5629 2.22749 15.3642 2.36064 15.197 2.52844L12.658 5.06744L15.878 8.28744C16.2577 8.15822 16.666 8.13827 17.0565 8.22984C17.447 8.32141 17.804 8.52084 18.0866 8.80539C18.3693 9.08994 18.5664 9.44818 18.6554 9.83927C18.7444 10.2304 18.7217 10.6386 18.59 11.0174L21.69 14.1174C22.1533 13.9583 22.6573 13.9627 23.1178 14.1299C23.5783 14.2972 23.9676 14.6172 24.2208 15.0366C24.4741 15.4561 24.5759 15.9497 24.5094 16.4351C24.4429 16.9205 24.212 17.3685 23.8553 17.7044C23.4986 18.0402 23.0376 18.2438 22.5491 18.281C22.0605 18.3182 21.574 18.1869 21.1705 17.909C20.767 17.631 20.471 17.2232 20.3317 16.7534C20.1924 16.2837 20.2182 15.7804 20.405 15.3274L17.51 12.4324V20.0494C17.9485 20.2667 18.2994 20.6277 18.5041 21.0722C18.7088 21.5168 18.7551 22.018 18.6352 22.4925C18.5152 22.967 18.2364 23.3861 17.845 23.68C17.4536 23.9738 16.9734 24.1247 16.4842 24.1076C15.9951 24.0904 15.5267 23.9061 15.1569 23.5855C14.7871 23.2649 14.5383 22.8273 14.452 22.3455C14.3657 21.8638 14.447 21.367 14.6825 20.9379C14.9179 20.5088 15.2933 20.1734 15.746 19.9874V12.3004C15.4841 12.193 15.246 12.0348 15.0455 11.8349C14.845 11.6351 14.686 11.3975 14.5778 11.1359C14.4695 10.8744 14.414 10.594 14.4145 10.3109C14.4151 10.0278 14.4717 9.74758 14.581 9.48644L11.411 6.31444L3.02797 14.7004C2.86001 14.8677 2.72674 15.0665 2.6358 15.2853C2.54486 15.5042 2.49805 15.7389 2.49805 15.9759C2.49805 16.213 2.54486 16.4477 2.6358 16.6665C2.72674 16.8854 2.86001 17.0842 3.02797 17.2514L15.253 29.4724C15.4202 29.6403 15.6189 29.7734 15.8377 29.8642C16.0565 29.9551 16.2911 30.0019 16.528 30.0019C16.7649 30.0019 16.9994 29.9551 17.2182 29.8642C17.437 29.7734 17.6357 29.6403 17.803 29.4724L29.972 17.3004C30.1399 17.1332 30.2732 16.9344 30.3641 16.7155C30.4551 16.4967 30.5019 16.262 30.5019 16.0249C30.5019 15.7879 30.4551 15.5532 30.3641 15.3343C30.2732 15.1155 30.1399 14.9167 29.972 14.7494" fill="#DD4C35"/>
<path d="M12.6581 5.06738L15.8781 8.28738C16.2578 8.15816 16.6662 8.13821 17.0567 8.22978C17.4472 8.32135 17.8041 8.52078 18.0868 8.80533C18.3695 9.08988 18.5665 9.44812 18.6555 9.83921C18.7445 10.2303 18.7219 10.6385 18.5901 11.0174L21.6901 14.1174C22.1535 13.9582 22.6574 13.9626 23.118 14.1299C23.5785 14.2971 23.9678 14.6171 24.221 15.0366C24.4742 15.456 24.5761 15.9496 24.5096 16.435C24.443 16.9204 24.2122 17.3684 23.8555 17.7043C23.4988 18.0402 23.0378 18.2437 22.5492 18.2809C22.0607 18.3182 21.5741 18.1869 21.1707 17.9089C20.7672 17.6309 20.4711 17.2231 20.3318 16.7534C20.1925 16.2836 20.2184 15.7804 20.4051 15.3274L17.5101 12.4324V20.0494C17.9487 20.2667 18.2995 20.6276 18.5043 21.0722C18.709 21.5167 18.7553 22.018 18.6353 22.4925C18.5154 22.967 18.2365 23.3861 17.8451 23.6799C17.4538 23.9738 16.9735 24.1247 16.4844 24.1075C15.9953 24.0903 15.5268 23.9061 15.1571 23.5854C14.7873 23.2648 14.5385 22.8272 14.4522 22.3454C14.3659 21.8637 14.4472 21.3669 14.6826 20.9379C14.9181 20.5088 15.2934 20.1733 15.7461 19.9874V12.3004C15.4842 12.1929 15.2462 12.0347 15.0457 11.8349C14.8452 11.635 14.6862 11.3974 14.5779 11.1359C14.4696 10.8743 14.4142 10.5939 14.4147 10.3108C14.4153 10.0277 14.4718 9.74752 14.5811 9.48638L11.4111 6.31438" fill="white"/>
</svg>
