<svg width="112" height="127" viewBox="0 0 112 127" fill="none" xmlns="http://www.w3.org/2000/svg">
<path d="M17.8944 55.9161C14.1994 57.6166 4.41956 65.2716 2.53594 67.5397C0.579765 69.8077 0.000381028 66.264 2.02876 60.3812C3.62215 55.6325 7.67962 49.1825 14.4892 43.6543C18.4734 40.4649 27.2396 35.8581 32.6002 33.1645C33.6872 32.5973 47.7414 26.7855 60.2744 23.8796C61.3614 23.596 58.9706 25.6514 58.6081 26.7855C56.7245 32.172 19.1254 55.2779 19.1254 55.2779L17.8944 55.9161ZM70.8513 120.91C71.5033 124.737 70.9239 125.021 66.8671 125.517C62.81 126.013 59.8398 124.525 58.7533 123.532C57.6663 122.54 57.4494 120.343 58.5359 118.359C59.1882 117.083 59.8402 116.657 60.2026 115.098C60.5647 113.61 60.8545 113.255 61.1441 112.688C61.4336 112.192 61.5065 111.696 61.5787 108.223C61.6512 104.75 61.5787 98.2292 61.9411 95.4653C62.3035 92.6304 74.8366 96.7409 74.8366 96.7409C74.8366 96.7409 71.866 103.97 71.0693 105.742C70.2723 107.514 70.3448 110.916 70.3448 111.625C70.3448 112.334 70.0553 113.751 69.8377 113.822C69.6203 113.893 70.5622 115.736 70.1272 116.799C69.8373 117.791 70.7791 120.343 70.8513 120.91ZM75.6329 12.5393C75.1979 9.84597 75.6329 4.52969 76.2123 3.6796C78.0237 1.26957 87.5862 0.98632 89.615 3.82123C90.4842 5.09688 90.4117 8.07376 90.2669 9.98759C90.1221 11.9011 89.615 16.012 89.5424 17.359C89.4702 18.3514 78.9655 19.9103 76.6473 17.217C75.995 16.5085 75.6329 12.5393 75.6329 12.5393ZM96.9318 114.035C101.351 117.154 104.756 117.72 107.001 118.854C109.247 119.989 108.668 122.186 104.901 122.824C101.858 123.391 97.0765 122.256 93.889 122.256C90.7015 122.256 83.6017 122.611 81.7181 121.335C79.5449 119.847 80.4864 117.083 80.4864 117.083C81.0661 115.524 82.5148 112.05 82.0801 109.215C81.6455 106.38 81.0658 104.821 79.9792 102.198C78.8926 99.5762 78.0959 93.1266 79.1103 92.772C80.1247 92.4174 79.8344 92.772 81.1387 93.0552C82.4426 93.3385 83.8915 93.764 86.717 93.764C89.5424 93.764 92.6573 93.3385 93.7443 93.1262C94.8308 92.9136 95.7001 92.7006 95.3377 94.8981C94.9756 97.0952 93.889 101.206 93.8165 104.396C93.7443 107.585 93.7443 111.271 93.9616 111.909C94.1785 112.546 95.7726 113.255 96.9318 114.035Z" fill="#010101"/>
<path d="M81.428 19.6273C73.4592 26.3608 58.0282 28.2033 35.1359 36.8504C29.2678 39.0474 13.6198 45.639 9.85254 52.5142C22.5303 45.3558 27.2394 55.2075 28.2534 65.3428C29.1949 74.8403 34.049 79.802 46.5095 79.518C59.3324 79.2348 63.2444 86.5348 66.794 95.1112C73.6762 62.2949 84.688 55.9163 91.7872 50.3171C106.856 38.3386 88.3102 17.2172 81.428 19.6273Z" fill="#8AC640"/>
<path d="M81.4278 19.627C62.3024 26.1476 43.394 27.7778 21.1537 41.1736C15.8653 44.3631 4.70865 51.5921 2.53516 65.4135C10.6487 56.6245 29.412 45.5681 52.3771 38.5513C63.9683 35.0072 72.4446 32.6685 82.7316 28.7702C82.0075 24.2337 82.0075 22.4619 81.4278 19.627Z" fill="#8AC640"/>
<path d="M105.842 58.4674C105.842 58.4674 104.466 63.0745 101.713 64.5631C101.713 64.5631 99.6847 65.272 95.628 63.0749C94.4688 62.437 93.5996 60.24 93.6718 59.5308C93.7443 57.8296 94.8309 57.0501 94.8309 57.0501C94.8309 57.0501 95.9904 55.1363 97.3665 55.2073C98.7433 55.2779 101.062 55.4905 101.786 54.8527C102.438 54.1439 105.988 56.1284 105.842 58.4674ZM76.2849 13.8859C76.2849 13.8859 75.9954 17.501 75.4882 19.7687C75.4157 20.1942 73.2425 20.4065 71.6484 21.0447C74.6912 29.5498 93.0198 29.4788 95.4106 25.2972C94.2515 24.5178 91.9333 23.3128 90.8467 22.8875C89.7598 22.462 89.8323 22.533 89.7598 20.5485C89.6876 18.5637 89.5425 14.8783 89.3974 13.8859C89.2526 12.8935 78.0234 12.8935 76.2849 13.8859Z" fill="#010101"/>
<path d="M77.0093 13.8864C77.0093 13.8864 77.0093 15.9419 76.792 17.9263C76.7198 18.8478 76.6473 19.4146 76.5025 20.1234C76.4299 20.549 78.9655 22.2495 79.69 26.0062C83.1674 33.5898 91.209 29.8335 94.5413 26.2188C93.3822 25.439 91.4986 24.376 89.3254 23.5255C88.2385 23.1 88.7457 22.1789 88.6735 20.1944C88.6009 18.2099 88.3111 15.3037 88.1663 14.2407C88.0208 13.1776 78.7482 12.894 77.0093 13.8864Z" fill="#F0EFEF"/>
<path d="M76.2846 13.8859C76.2846 13.8859 76.2121 15.1619 75.9951 16.6502C76.9366 17.5713 78.1683 18.8473 79.1104 19.6271C79.7624 20.1942 81.3558 20.1233 82.8051 20.1233C84.109 20.1233 85.2681 20.2649 85.7753 19.9816C86.9348 19.4144 88.6007 17.9972 89.5425 16.9338C89.4703 15.6581 89.3978 14.4531 89.3256 13.8859C89.2523 12.8935 78.0231 12.8935 76.2846 13.8859Z" fill="#010101"/>
<path d="M82.8768 19.2723C82.0072 19.2723 80.9928 19.2017 80.1961 19.0597C79.8337 18.9891 79.4716 18.7765 79.1818 18.6345C78.6746 18.2799 78.1674 17.855 77.5884 17.4295C76.4289 16.579 76.3567 16.0828 76.3567 15.8706C76.8639 11.4051 76.2116 7.64875 76.2116 7.64875C76.2116 7.64875 75.7044 5.73492 78.4573 5.23872C81.2101 4.74251 82.8764 4.67188 82.8764 4.67188C82.8764 4.67188 84.6153 4.67187 87.2956 5.23872C90.0485 5.73492 89.5413 7.64875 89.5413 7.64875C89.5413 7.64875 88.8894 11.4051 89.3966 15.8706C89.3966 16.0828 89.3244 16.579 88.1649 17.4295C87.1505 18.1383 86.3538 18.9177 85.5571 19.0597C84.7601 19.2017 83.7457 19.2723 82.8768 19.2723Z" fill="#010101"/>
<path d="M82.877 2.8291C78.0958 2.8291 77.1536 4.10476 75.7771 5.52239C75.4876 5.87662 75.7046 8.00306 76.2121 12.5392H76.8641C76.8641 12.5392 76.4291 11.2632 76.5016 9.77492C76.5742 8.28665 76.8641 8.35764 76.6464 8.00306C76.3569 7.57749 75.7772 6.86868 77.0814 6.16021C78.3853 5.4514 80.4136 6.72706 82.877 6.79804C85.34 6.72706 87.4409 5.4514 88.7448 6.16021C90.0487 6.86868 89.4693 7.57749 89.1798 8.00306C88.8899 8.42828 89.252 8.28631 89.3246 9.77492C89.3968 11.2632 88.9621 12.5392 88.9621 12.5392H89.6141C90.0487 8.00306 90.3386 6.01859 90.1213 5.66401C88.8896 4.10476 87.6583 2.89974 82.877 2.8291ZM105.842 58.6799C105.842 58.6799 104.465 63.0035 101.785 64.4917C101.205 64.2085 101.278 63.7833 100.771 63.1451C100.626 62.9328 100.118 62.7905 99.9014 62.5783C99.6841 62.3656 99.7567 62.0111 99.3943 61.7278C99.1044 61.4442 98.8871 61.6568 98.5972 61.4442C98.3077 61.161 98.2348 60.8064 98.0178 60.5941C97.8727 60.4522 97.2933 60.3815 97.1486 60.2395C96.7861 59.885 93.599 59.2471 93.7437 58.5383C94.0333 57.4749 94.613 56.6955 94.613 56.6955C94.613 56.6955 95.9894 54.711 97.3655 54.7816C98.742 54.8526 100.046 55.1362 100.771 54.4984C101.568 53.7892 106.059 56.4119 105.842 58.6799Z" fill="#010101"/>
<path d="M96.424 27.353C96.424 27.353 100.988 26.2896 104.103 29.1958C107.219 32.1727 107.001 35.858 106.059 38.1261C106.856 39.0475 108.305 41.5988 107.219 44.6467C112 48.6156 109.899 54.7114 105.625 58.7513C105.625 58.7513 104.61 55.0656 100.554 54.853C100.698 53.4357 96.7865 52.3013 98.5975 48.6156C95.8447 47.9778 95.9172 46.135 95.4826 43.8673C95.1202 41.5988 96.424 27.353 96.424 27.353Z" fill="#010101"/>
<path d="M94.7575 29.3376C94.7575 29.3376 100.046 26.7153 103.161 29.6922C106.276 32.6691 105.407 35.9292 104.465 38.1973C105.262 39.1183 107.145 41.7413 105.986 44.8595C105.769 45.5683 104.175 45.5683 103.016 47.4111C105.913 45.7806 107.725 46.2061 108.377 48.2612C109.391 51.4507 107.145 55.278 105.189 57.4045C105.189 57.3335 105.117 57.2625 105.117 57.1919C104.827 58.2553 104.465 60.3104 102.292 62.5784C101.205 63.7125 100.335 63.5709 99.1038 63.2873C97.6551 62.9327 97.148 62.2945 95.1196 61.2318C93.9605 60.594 94.6124 59.8142 94.6124 59.1763C94.6124 59.0347 94.7571 58.8218 94.9748 58.5385C95.1196 58.1839 95.5542 57.6174 96.2061 56.9793C96.2061 56.9793 97.148 55.7036 98.5247 55.7742C99.9012 55.8452 101.35 55.562 101.712 55.2074C101.712 52.7267 98.8146 52.6557 99.8286 48.4032C99.9012 48.1906 100.264 47.836 101.422 47.6944C99.6835 47.3398 98.8868 47.2688 97.6551 46.1351C96.7859 45.3557 96.1339 44.3633 95.9163 43.0876C95.482 40.8905 94.7575 29.3376 94.7575 29.3376Z" fill="#F0EFEF"/>
<path d="M79.472 24.8721C79.0374 24.3049 76.7917 21.47 72.5172 20.336C71.2856 19.9814 70.4889 20.9738 69.2575 21.6826C68.8951 21.47 67.3014 20.7612 66.4321 21.257C65.5629 21.7529 64.9835 22.2495 64.1139 22.6037C63.6789 22.3911 62.5201 22.3911 61.5783 22.7453C60.6365 23.0289 59.1875 23.6667 57.8111 25.5096C56.9418 28.5574 73.1692 26.289 73.1692 26.289L79.472 24.8721Z" fill="#010101"/>
<path d="M79.6172 24.8719C77.2986 24.0921 77.661 21.4698 72.5173 21.0446C71.503 20.9736 70.851 21.753 70.1265 22.2492C70.489 22.6038 70.851 23.1707 71.0683 23.7375C70.4164 23.029 69.2573 22.1073 68.0978 21.8947C67.0112 21.6824 66.2867 22.4618 65.1276 23.029C65.3446 23.2413 65.5622 23.5959 65.8518 24.0214C64.8374 23.3836 64.1132 23.171 62.7368 23.6669C61.795 23.9501 59.9839 24.7299 58.6075 26.6437C57.7382 29.6916 73.2415 26.2892 73.2415 26.2892L79.6172 24.8719Z" fill="#8AC640"/>
<path d="M93.2371 26.0063C93.2371 26.0063 93.2371 25.2265 93.1646 24.518C93.1646 24.3764 92.5852 24.0218 92.5852 23.8802L92.4404 23.7382C92.4404 23.7382 93.5996 23.1004 94.4688 23.455C95.4103 23.7382 95.9174 24.9432 95.9174 24.9432C97.5838 24.3764 97.7285 25.0142 98.5256 25.8646C100.264 25.5101 100.481 26.1479 101.568 27.7075C101.568 27.7075 100.264 27.4949 97.7289 27.9198C95.2655 28.274 93.2371 25.9353 93.2371 26.0063Z" fill="#010101"/>
<path d="M92.9469 25.6519C92.9469 25.6519 93.3816 25.2973 93.2364 25.2263C94.0331 24.8011 95.1201 24.3053 95.6272 25.6519C97.2936 25.0847 97.5109 25.8645 98.3076 26.7153C100.336 25.7939 100.481 26.9276 100.626 27.4238C99.9739 27.4238 99.0324 27.4947 97.7282 27.6364C95.2652 27.991 92.8744 25.5809 92.9469 25.6519Z" fill="#8AC640"/>
<path d="M68.3157 23.8799C68.3157 23.8799 72.445 25.2972 75.9224 25.0846C79.3998 24.8013 85.3402 24.5177 88.5277 26.3606C88.5277 26.3606 91.7877 25.2262 94.8305 26.006C97.8736 26.7854 103.452 31.8887 101.786 37.2753C101.64 37.6299 100.699 38.1967 99.6121 38.5513C99.6121 38.5513 100.192 40.961 99.1774 42.9455C98.1631 44.8593 95.9174 48.545 95.8448 53.648C95.7726 54.4984 95.6279 56.2703 95.4827 57.1207C89.8319 56.9085 81.1386 54.8527 72.5902 54.9946C72.6624 54.0735 72.7349 53.5064 72.8075 52.5849H73.0244C72.5898 50.2459 72.445 49.0409 72.0101 47.269C69.2572 45.5681 66.3592 43.5837 63.8965 39.827C61.5057 36.0703 68.3157 23.8799 68.3157 23.8799ZM96.2795 62.1534C96.2795 62.1534 100.771 77.8882 95.4827 84.4798C95.4827 84.4798 96.2795 87.5273 94.4684 90.7878C94.1785 92.2051 93.8161 93.4811 93.5991 94.8984C92.6573 100.781 91.0632 103.262 90.6286 112.688L86.2816 112.618C86.2816 112.618 85.7744 105.813 84.2532 102.199C83.3843 100.144 79.9788 97.379 80.1243 94.6151C80.269 92.4887 80.7037 90.7168 84.3987 87.8816C84.6882 83.771 80.4863 79.8724 81.1386 64.5631L96.2795 62.1534Z" fill="#010101"/>
<path d="M94.9756 61.5152C96.1348 68.7446 98.8151 79.4471 93.9613 84.6917C94.2477 86.0216 94.2722 87.3928 94.0335 88.7317C93.8887 89.5821 93.5988 90.5035 93.2368 91.4956C92.5123 93.1968 92.2224 95.6775 92.0051 97.1657C91.0633 103.049 91.0633 103.332 90.6287 112.759L86.2817 112.688C86.2817 112.688 85.7745 105.884 84.2533 102.269C83.3844 100.214 81.573 98.4421 81.4282 95.6778C81.2835 93.5517 82.8047 89.2992 86.4271 89.4408C86.2098 80.8648 82.1527 82.5656 81.0662 64.7047L94.9756 61.5152ZM68.3158 23.8799C68.3158 23.8799 69.9095 24.3761 71.6481 24.5177C73.3869 24.6593 75.2705 24.5177 76.9365 24.4467C80.4139 24.1635 85.3402 23.8089 88.6003 25.6517C88.6003 25.6517 90.4113 25.0846 92.3675 25.2262C93.2368 25.2972 94.1064 26.006 95.1204 26.2896C98.3079 27.069 101.351 32.243 99.9738 36.9211C99.8291 37.2757 98.8147 36.9211 97.6556 37.2757C97.8726 38.2681 98.018 40.5361 96.8585 42.9458C95.6272 45.3559 94.0335 48.4744 94.323 54.4281C86.7163 54.0735 83.3115 53.5777 75.777 53.2231C75.1251 50.6005 74.6901 47.9782 74.6179 46.6315C75.6323 46.1353 76.2113 45.7104 77.0087 44.8597C74.8356 45.2142 73.9659 45.0723 72.6617 44.3635C71.3578 43.6546 69.0396 41.3866 67.8805 39.8983C67.7357 39.7563 66.939 42.095 65.1279 42.1664C64.4756 41.245 67.2285 38.6223 66.7213 37.6302C64.9106 34.0152 68.3158 23.8799 68.3158 23.8799Z" fill="#F0EFEF"/>
<path d="M95.5542 55.6323C95.5542 55.6323 95.6989 58.1839 95.6989 58.8218C95.6989 59.5306 96.2787 61.6567 96.3509 62.6491C95.5542 63.9957 92.0768 67.0436 85.774 68.1776C79.5438 69.4533 71.2852 59.8851 71.2852 59.8851C71.5025 58.9637 72.227 56.2701 72.7342 54.8528C72.8067 54.7112 72.9515 54.3566 72.9515 54.215C73.6038 53.2936 95.5542 55.6323 95.5542 55.6323Z" fill="#010101"/>
<path d="M93.9617 55.8451C93.9617 57.6169 94.2512 58.893 94.4688 60.027C94.8309 62.0824 95.4103 63.4291 95.4103 64.7757C95.4103 68.8863 89.9046 68.1775 85.2677 68.3194C79.0375 69.5955 73.749 60.027 73.749 60.027C74.1837 58.3968 74.4735 56.5543 75.1255 54.9947C75.1977 54.1442 75.3428 53.0812 75.415 52.585C84.2533 52.585 90.4836 53.0812 94.1061 53.4351C94.2512 54.2149 94.1064 55.5615 93.9617 55.8451Z" fill="#F0EFEF"/>
<path d="M87.0062 64.9879C87.0062 64.9879 83.1667 56.6245 71.6477 59.1055C68.8952 66.6892 65.2001 75.4072 67.5909 84.8337C65.2001 88.0232 62.4473 89.7954 62.4473 95.6778C62.4473 101.561 62.7371 102.553 62.7371 102.553L71.2131 102.979C71.2131 102.979 73.9659 99.5058 75.0525 95.7491C75.3424 94.6857 75.6323 92.7723 75.4149 90.5752C75.7045 90.15 76.9361 89.1579 77.0812 87.2441C77.0812 87.2441 81.2106 85.118 83.6014 79.944C85.8474 75.2652 85.2677 71.2253 87.0062 64.9879Z" fill="#010101"/>
<path d="M87.0064 64.988C86.7894 64.2086 83.8915 56.5539 73.1695 58.8216C66.867 75.2653 69.1853 82.0695 70.1267 85.046C65.8523 90.3616 63.8965 91.4956 64.7661 102.269H70.417C73.0247 98.2292 73.6045 96.7406 73.7492 91.425C73.7492 91.2124 72.9525 91.8502 72.3728 92.559C72.8078 90.3619 74.0391 89.9367 74.9809 88.5901C75.4155 88.0229 75.7776 87.1725 75.7776 86.0384C80.8487 82.7073 82.7323 78.5254 83.8189 74.2019C84.6885 71.2254 85.7025 66.3347 87.0064 64.988Z" fill="#F0EFEF"/>
<path d="M69.1131 53.5781C69.1131 53.5781 71.0693 53.6488 72.8081 54.216C74.4744 54.7828 74.4744 55.137 75.1264 55.8462C75.7783 56.5554 77.3721 57.6181 77.0826 58.6811C76.9374 59.2483 76.5754 59.3899 76.0682 59.8861C75.8509 60.0987 74.2568 61.7996 73.8947 62.0122C73.6774 62.1538 73.3875 62.3668 73.1702 62.5084L72.0836 63.2172C71.3591 63.5718 70.852 63.7844 70.0553 63.7134C70.0553 63.7134 68.2442 63.6425 67.0847 62.4378C67.0847 62.4378 66.94 61.8706 67.2298 61.5873C67.2298 61.5873 65.7083 60.3113 65.2737 59.4609C64.8387 58.6108 64.8387 57.4058 65.1289 56.768C65.2737 56.1294 68.0987 54.3576 69.1131 53.5781ZM70.9245 122.541L70.7072 124.313C70.7072 124.313 70.0553 125.093 65.2015 125.022C60.2751 124.951 58.9712 123.463 58.5366 122.683L58.2471 120.84C58.2471 120.84 59.1889 119.494 59.4062 119.494C60.9999 119.635 66.4335 121.762 70.2007 122.329C70.5621 122.329 70.6343 122.47 70.9245 122.541ZM81.4288 118.926C81.4288 119.706 81.3563 119.706 81.3563 120.486C82.2255 121.124 84.3994 121.478 88.5283 121.407C94.5413 121.265 100.12 123.179 106.929 122.045L107.002 120.769L106.35 120.698L82.2255 118.784L81.4288 118.926Z" fill="#010101"/>
<path d="M86.717 121.407H88.528C92.4404 121.265 96.1351 122.116 100.119 122.328C102.22 122.257 104.828 121.761 104.611 120.273L84.0367 118.571C82.805 119.918 83.7464 121.052 86.717 121.407ZM63.0999 91.5676C63.7518 91.9929 68.171 94.5445 75.343 94.1899C75.1979 95.5366 75.2705 98.1592 72.083 102.766C70.4892 105.034 69.1124 109.003 68.8229 114.036C68.8955 115.17 69.5474 116.162 68.6782 117.65C68.9677 118.571 70.1268 120.414 70.7066 121.548C71.2859 122.683 71.5758 123.958 67.736 124.029C63.824 124.1 57.5212 123.675 58.3908 120.698C58.8258 119.139 60.0571 117.509 60.2022 116.871C60.347 116.233 60.347 114.319 61.5783 113.043C62.6652 109.5 62.3028 106.097 62.0859 102.908C61.7234 99.5765 61.6509 94.2609 63.0999 91.5676ZM69.8373 33.803C74.981 27.0694 70.634 21.6832 62.3757 23.3131C59.0431 23.9509 55.7109 26.2193 55.4932 30.3299C54.4066 30.4715 51.9436 30.6131 50.7119 35.0076C49.7705 38.4097 49.2633 39.0476 47.5966 40.7484C46.5101 41.9535 47.6692 44.4341 48.4659 46.2063C51.1466 52.3017 59.4052 52.8686 64.9835 57.4757C66.8671 56.9795 68.8229 54.9244 69.4027 53.5777C64.6936 48.1198 65.7076 45.9937 63.824 43.1588C65.8527 42.4497 70.4892 39.6857 69.8373 33.803Z" fill="#010101"/>
<path d="M68.8224 33.3776C69.1119 32.9521 69.6191 32.031 69.8368 31.6764C69.9094 31.6054 70.7061 32.9521 70.7786 32.8814C72.7344 29.7626 73.2416 25.2264 70.9956 24.8012C70.4884 24.7302 69.5469 24.518 68.7499 24.234C67.3012 23.7378 65.9974 23.7378 63.6788 24.1634C60.4913 24.7302 57.3038 26.9983 57.3038 30.2588C57.3038 30.4714 59.5491 31.1092 60.2014 33.7319C59.1145 32.2432 57.2308 30.613 54.9851 32.0306C52.5943 33.5189 53.826 36.921 50.6385 40.4647C49.5516 41.6697 49.6967 43.0874 50.8555 45.9223C52.7391 50.3878 61.65 52.7975 66.5038 57.05C67.663 56.5538 68.4596 55.4198 69.0394 54.5693C65.7793 51.2382 64.4751 48.1194 63.5336 45.8513C62.3745 43.229 61.0703 41.7407 58.5347 39.7556C59.839 40.2518 60.8533 40.748 61.4324 41.1732C62.0843 41.5984 63.0261 41.6694 63.8957 41.3858C67.0114 40.3234 68.6777 36.0706 68.8224 33.3776Z" fill="#F0EFEF"/>
<path d="M100.337 34.511C100.119 37.2043 98.0909 35.8577 97.0043 35.3615C94.8308 34.4401 92.6574 33.8022 90.1218 33.8022C87.5862 33.8022 84.3262 34.0148 81.5011 34.7236C77.5891 35.7867 76.4296 35.7161 74.6911 34.8653C72.9526 33.9438 69.9102 31.6758 69.9102 31.6758C69.9102 31.6758 69.8377 32.3846 70.5622 33.306C71.5036 34.4401 73.6049 35.8577 76.43 36.7788C77.8064 37.2043 78.8933 36.9204 80.125 36.6371C86.5726 35.0779 93.3822 34.7943 99.1053 38.1964C99.3951 38.338 100.41 37.9128 100.844 37.275C101.423 36.3539 100.337 34.511 100.337 34.511Z" fill="#010101"/>
<path d="M67.374 61.5156C67.9534 61.8702 68.6779 62.0828 69.4746 62.7206C69.4746 62.7206 68.8227 62.7206 68.5331 62.4374C68.1707 62.2248 67.4462 61.587 67.374 61.5156Z" fill="#0A1825"/>
<path d="M88.3106 5.31029C88.0933 4.67247 86.4992 3.53809 82.8049 3.53809C78.8203 3.53809 77.6612 4.7431 77.589 5.38093C77.589 5.59354 77.2991 7.86196 77.2266 8.78303C77.2266 8.78303 77.2266 9.91706 77.2988 11.6179C77.3713 12.752 77.6612 13.3898 77.8059 14.8784C77.9507 16.4373 78.3857 17.4297 79.1824 18.7057C79.5448 18.918 79.8343 19.1309 80.1967 19.2019C81.6457 19.4852 84.1813 19.5562 85.5577 19.2019C86.3544 18.9893 87.3688 17.6427 87.5861 16.4377C87.8756 14.9494 88.1655 13.886 88.2381 12.9649C88.3828 12.0439 88.4554 9.98805 88.5276 9.42086C88.7452 7.86196 88.3828 5.45192 88.3106 5.31029Z" fill="#F0EFEF"/>
<path d="M80.7038 92.9141C80.7038 92.9141 84.5436 94.5443 94.0339 93.1267C94.0339 93.1267 91.3536 106.31 92.5853 112.901C92.5853 112.901 93.8166 114.602 102.945 117.862C102.945 117.862 107.002 118.855 106.857 120.84C106.857 120.84 107.002 121.265 102.076 121.123C97.1496 120.981 92.5127 120.13 89.2527 120.13C85.9926 120.13 82.5152 120.272 81.9358 119.351C81.2839 118.501 82.0806 116.303 83.0224 115.027C84.0371 113.681 83.7469 112.688 83.6747 110.279C83.4567 103.971 78.5303 97.4502 80.7038 92.9141Z" fill="#010101"/>
<path d="M79.9067 94.1185C79.3995 94.8273 79.9789 97.5203 80.7034 100.143C81.4279 102.765 83.022 104.325 83.384 108.648C83.7461 112.901 83.8187 113.468 82.587 115.948C81.3553 118.428 80.9932 120.697 85.2673 120.768C89.5414 120.839 91.86 120.697 96.2066 121.335C100.554 121.973 102.075 122.185 104.466 121.831C106.856 121.477 107.363 120.697 106.349 119.988C105.335 119.279 101.133 118.5 99.3219 117.082C97.583 115.806 92.657 113.68 92.5848 113.113C92.3675 111.199 92.295 104.253 92.657 101.985C93.0195 99.717 93.5263 96.4569 93.6714 95.6064C93.8165 94.756 94.5406 93.9052 93.309 94.1888C92.0776 94.472 87.4411 95.1102 83.9638 94.8976C80.4864 94.6853 80.1243 93.9056 79.9067 94.1185Z" fill="#8AC640"/>
<path opacity="0.3" d="M82.3704 116.02C83.6017 116.587 85.4131 117.013 86.7895 117.013C86.7895 117.013 86.282 119.352 87.079 120.769C87.8757 122.187 81.2834 121.336 81.2834 121.336L80.9939 116.304L82.3704 116.02ZM101.568 122.116C102.727 121.761 103.524 120.485 102.583 119.281C101.568 118.076 100.699 117.863 102.003 117.792C103.307 117.721 108.088 120.556 108.088 120.556L105.625 122.753L101.568 122.116ZM79.6897 96.8832C81.356 97.4504 83.8915 97.592 86.065 97.521C88.2382 97.4504 91.4982 97.1664 93.5995 96.458C95.7001 95.7492 94.8308 97.2374 94.8308 97.2374L93.6717 98.3008C93.6717 98.3008 90.9188 99.3639 86.4275 99.2932C81.139 99.2223 79.5449 98.6554 79.5449 98.6554L79.6897 96.8832ZM79.8344 100.427C81.5011 100.994 84.0363 101.136 86.2098 101.065C88.3829 100.994 91.2809 100.994 93.3818 100.215C94.2511 99.9314 93.7443 101.136 93.7443 101.136L93.3818 101.774C93.3818 101.774 90.5564 102.766 86.1372 102.695C80.8488 102.624 79.907 102.199 79.907 102.199L79.8344 100.427Z" fill="#010101"/>
<path d="M75.0527 50.7422C75.0527 51.2384 80.7036 54.0023 83.8185 54.5695C86.9338 55.1363 93.454 54.5695 94.468 54.3569L94.3229 55.3493C94.3229 55.3493 86.5714 56.4833 80.631 54.9241C74.6903 53.3648 75.3426 53.0102 75.3426 53.0102L75.0527 50.7422Z" fill="#010101"/>
<path d="M62.9548 111.2C63.824 111.626 66.9393 112.405 68.9677 111.98C69.2572 111.909 68.9677 107.089 69.7647 104.892C70.9239 101.844 72.8075 99.3635 73.6764 93.9773C70.6336 93.6937 67.1566 92.9139 65.3452 92.3467C63.0273 99.2928 63.8244 105.246 62.9548 111.2ZM67.8089 115.666C68.3161 115.807 68.6782 116.374 68.8233 116.02C69.1128 115.382 68.3161 114.177 68.2435 113.327V113.256C67.5916 112.689 63.1724 112.618 63.4623 112.901C62.9551 113.823 62.1584 113.681 61.8689 115.524C61.7241 116.445 62.8833 115.666 63.9695 115.595C62.0137 116.87 59.768 118.501 59.4055 119.918C58.9709 121.903 59.6954 122.47 61.8689 123.533C63.7525 123.958 65.9982 124.029 67.7367 123.958C69.6929 123.604 70.0553 122.683 69.4756 121.407C68.6056 119.493 68.0262 117.012 67.8089 115.666Z" fill="#F0EFEF"/>
<path d="M68.6052 23.5967C70.996 24.9433 74.3286 24.5891 75.5599 24.5181C75.8498 24.5181 78.7478 24.0219 78.8926 24.0925C79.1821 24.1635 79.1821 24.3761 79.1821 24.3761C79.1821 24.3761 78.0955 24.943 75.6325 25.0846C73.3142 25.2262 70.5614 25.0846 69.0402 24.3761C67.2288 23.5967 68.6052 23.5967 68.6052 23.5967ZM93.2367 24.9433C93.6713 25.2266 96.4967 26.29 97.7284 27.5656C98.815 28.7 98.2356 28.629 98.0179 28.3454C97.7284 27.9908 95.4824 26.5026 94.6131 26.1483C93.7438 25.7941 92.6569 25.1559 92.6569 25.0143C92.6569 24.8727 93.2367 24.9433 93.2367 24.9433Z" fill="#010101"/>
<path d="M68.243 54.3572C70.344 54.2156 72.5175 54.7118 73.8939 56.1291C74.6184 56.8379 75.7775 57.6173 75.6328 58.3261C75.6328 58.5387 75.1978 59.1059 74.8361 59.5312C74.6187 59.8144 73.9668 60.4522 73.7491 60.6652C73.4596 60.8778 72.4453 61.6576 72.2279 61.7992C72.0106 61.9412 71.7208 62.2958 71.5034 62.3664C70.7793 62.721 69.9823 62.4374 69.2578 62.0832C68.5336 61.7286 69.4029 61.6576 68.6058 61.0908C66.65 59.7441 65.5631 58.8223 66.3601 56.2C66.4323 55.7038 67.229 55.1366 68.243 54.3572Z" fill="#F0EFEF"/>
<path opacity="0.4" d="M49.7701 38.1265C43.25 40.6782 26.6599 48.7584 21.9512 51.239C25.8632 53.6487 27.6742 59.4605 28.254 65.3433C28.3262 65.9105 28.3987 66.4067 28.4713 66.9735C28.5435 67.4697 28.616 67.824 28.6882 68.0369C28.6882 68.1079 28.6882 68.2495 28.7608 68.3202C33.0352 56.9092 48.3208 44.8601 48.9005 43.9386C49.19 43.5134 48.5381 41.6706 49.5525 39.8991C50.8567 37.6303 53.3926 36.6379 49.7701 38.1265ZM65.2734 91.6386C68.6056 85.118 68.6782 78.8807 68.6056 71.5803C68.6056 68.5324 70.8513 64.2089 69.6926 65.4139C65.3456 70.1623 54.4066 79.0933 46.5101 79.5892C57.5941 79.2349 61.9408 84.6925 65.2734 91.6386Z" fill="#010101"/>
<path d="M15.5752 57.2629C19.7045 54.357 41.0759 43.2296 46.2196 41.67C51.3629 40.0398 49.7692 38.126 49.7692 38.126C49.7692 38.126 28.9049 46.9146 16.4444 54.4986" fill="#010101"/>
<path opacity="0.4" d="M76.4291 36.7794C74.7628 36.1415 73.4589 38.0554 73.8935 39.8982C74.3285 41.7411 78.2405 43.7962 78.0228 50.5297C77.878 56.0583 76.6464 58.326 76.6464 58.326L73.8935 54.9242C73.8935 54.9242 73.4589 47.2692 72.5171 46.1352C71.5756 45.0012 68.6051 42.9457 67.4459 41.8827C66.2868 40.8193 68.7498 39.402 68.6051 37.4172C68.4603 35.5037 69.8367 31.6764 69.8367 31.6764L76.4291 36.7794ZM86.4991 66.9727C86.3543 72.2883 87.586 80.1558 88.0928 83.9125C88.6 87.6689 89.252 87.9524 88.0928 89.6537C86.9337 91.2839 85.4125 93.9772 85.4125 93.9772L80.4136 93.5516C80.4136 93.5516 84.3982 88.5903 84.6151 87.6689C84.8324 86.7478 82.5867 79.731 82.5867 79.731L86.4991 66.9727ZM76.864 17.3592C77.8784 19.5559 79.1097 20.5483 81.0655 21.1865C82.2247 21.6117 86.7886 22.1789 88.6 20.1941C89.3967 19.2727 88.8895 16.792 88.8895 16.792L84.7602 20.0521L79.1819 19.0601L78.53 17.4298L76.864 17.3592Z" fill="#010101"/>
<path d="M77.2981 22.25C79.1818 23.455 83.8908 24.5891 85.1947 24.8017C86.4986 25.0849 88.5995 23.455 89.6139 23.0298C90.7008 22.5336 92.5844 22.25 94.7575 24.1638C94.9749 24.3764 94.2504 25.2979 94.2504 25.2979C94.1778 25.2269 93.7432 25.2269 93.1634 24.9433C92.5841 24.66 92.0769 24.4471 91.2076 24.5181C87.5851 24.9433 87.0057 26.1483 83.8182 25.4391C80.6307 24.73 79.8337 24.1635 76.7188 24.3051" fill="#8AC640"/>
<path d="M77.2981 22.25C79.1818 23.455 83.8908 24.5891 85.1947 24.8017C86.4986 25.0849 88.5995 23.455 89.6139 23.0298C90.7008 22.5336 92.5844 22.25 94.7575 24.1638C94.9749 24.3764 94.2504 25.2979 94.2504 25.2979C94.1778 25.2269 93.7432 25.2269 93.1634 24.9433C92.5841 24.66 92.0769 24.4471 91.2076 24.5181C87.5851 24.9433 87.0057 26.1483 83.8182 25.4391C80.6307 24.73 79.8337 24.1635 76.7188 24.3051" stroke="#010101" stroke-width="10.8638" stroke-miterlimit="10" stroke-linejoin="round"/>
<path d="M76.647 22.4619C79.0378 23.4543 83.6743 24.5174 84.9782 24.801C86.282 25.0846 88.383 23.8086 89.3973 23.1707C91.2088 22.0367 93.5266 22.9581 94.6136 24.1631C95.3377 24.9426 95.6279 25.4388 95.6279 25.6514C95.6279 25.9347 94.7587 25.6514 94.7587 25.6514C94.2515 25.4388 93.6718 25.3682 93.2375 25.0842C92.6577 24.801 92.078 24.3757 91.2091 24.4464C87.5866 24.872 86.8621 26.0766 83.7472 25.3678C80.6322 24.659 79.8352 24.0212 76.5029 24.2334" fill="#8AC640"/>
<path d="M65.4176 88.6608C65.2729 88.5191 65.5624 88.3775 65.4176 88.3775C64.4762 88.3775 63.1719 87.6687 62.4471 86.6763C59.3321 82.2821 54.7679 79.3762 46.5092 79.5889C34.1209 79.8721 29.1946 74.9111 28.2531 65.4136C27.7459 60.2397 26.2969 55.2073 23.3268 52.3721L21.5879 53.4355C24.9201 56.2704 26.0071 60.8775 26.7316 67.1855C27.8907 76.683 35.7147 81.0775 44.8429 81.2191C54.3332 81.3607 57.738 83.2745 61.2876 87.9526C62.4467 89.4409 63.751 89.9371 64.765 90.1497L65.4176 88.6608Z" fill="#010101"/>
<path opacity="0.4" d="M99.0324 43.0879C99.2497 44.1509 99.8291 46.2064 100.988 47.1985C101.496 47.6947 101.568 47.8363 101.133 47.8363C100.698 47.8363 97.5109 47.6947 97.5109 47.6947L96.6416 46.2064L99.0324 43.0879Z" fill="#010101"/>
</svg>
