<svg width="33" height="32" viewBox="0 0 33 32" fill="none" xmlns="http://www.w3.org/2000/svg">
<path d="M6.40227 27.201L4.15527 2H28.8453L26.5953 27.197L16.4853 30L6.40227 27.201Z" fill="#E44F26"/>
<path d="M16.5 27.8575L24.67 25.5925L26.592 4.06055H16.5V27.8575Z" fill="#F1662A"/>
<path d="M16.5 13.4074H12.41L12.128 10.2424H16.5V7.15137H16.489H8.75L8.824 7.98137L9.583 16.4984H16.5V13.4074Z" fill="#EBEBEB"/>
<path d="M16.4997 21.4339L16.4857 21.4379L13.0437 20.5089L12.8237 18.0439H11.1507H9.7207L10.1537 22.8959L16.4857 24.6539L16.4997 24.6499V21.4339Z" fill="#EBEBEB"/>
<path d="M16.4893 13.4072V16.4982H20.2953L19.9373 20.5072L16.4893 21.4372V24.6532L22.8263 22.8962L22.8723 22.3742L23.5983 14.2372L23.6743 13.4072H22.8413H16.4893Z" fill="white"/>
<path d="M16.4893 7.15137V9.07137V10.2354V10.2424H23.9453H23.9553L24.0173 9.54837L24.1583 7.98137L24.2323 7.15137H16.4893Z" fill="white"/>
</svg>
