<svg width="129" height="128" viewBox="0 0 129 128" fill="none" xmlns="http://www.w3.org/2000/svg">
<path d="M28.2578 20.4208C20.9058 30.9858 21.8208 44.7328 27.4378 55.9608L27.8488 56.7588L28.1118 57.2648L28.2758 57.5558L28.5688 58.0798C28.7428 58.3868 28.9218 58.6918 29.1048 58.9988L29.4108 59.5028C29.6138 59.8288 29.8208 60.1528 30.0328 60.4758L30.2978 60.8848C30.5908 61.3218 30.8898 61.7568 31.1988 62.1858L31.2248 62.2188L31.3768 62.4238C31.6438 62.7918 31.9188 63.1558 32.1978 63.5168L32.5068 63.9098C32.7558 64.2228 33.0088 64.5328 33.2658 64.8438L33.5558 65.1898C33.9008 65.5958 34.2538 66.0018 34.6128 66.3978L34.6338 66.4198L34.6748 66.4648C35.0258 66.8478 35.3848 67.2228 35.7498 67.5978L36.0938 67.9448C36.3758 68.2288 36.6628 68.5078 36.9518 68.7858L37.3028 69.1198C37.6898 69.4838 38.0798 69.8418 38.4788 70.1898L38.4968 70.2058L38.7018 70.3798C39.0528 70.6848 39.4098 70.9848 39.7698 71.2818L40.2118 71.6348C40.5058 71.8698 40.8028 72.1028 41.1018 72.3308L41.5788 72.6918C41.9088 72.9348 42.2418 73.1738 42.5778 73.4088L42.9408 73.6668L43.0418 73.7388C43.3598 73.9588 43.6868 74.1698 44.0118 74.3808L44.4318 74.6608C44.9318 74.9758 45.4388 75.2888 45.9508 75.5908L46.3708 75.8278C46.7478 76.0448 47.1268 76.2588 47.5108 76.4668L48.1418 76.7928L48.9578 77.2168L49.1458 77.3078L49.4798 77.4688C49.9068 77.6728 50.3378 77.8738 50.7728 78.0678L51.0458 78.1898C51.5438 78.4078 52.0468 78.6168 52.5538 78.8178L52.9218 78.9618C53.3908 79.1438 53.8668 79.3208 54.3448 79.4888L54.5238 79.5508C55.0478 79.7348 55.5778 79.9038 56.1108 80.0708L56.4938 80.1848C57.0358 80.3488 57.5728 80.5428 58.1318 80.6468C93.6848 87.1298 104.012 59.2828 104.012 59.2828C95.3378 70.5828 79.9428 73.5628 65.3558 70.2448C64.8028 70.1198 64.2668 69.9468 63.7278 69.7888L63.3218 69.6648C62.7958 69.5038 62.2728 69.3348 61.7538 69.1548L61.5388 69.0778C61.0738 68.9138 60.6148 68.7418 60.1568 68.5648L59.7688 68.4128C59.2678 68.2148 58.7688 68.0078 58.2768 67.7928L57.9788 67.6598C57.5558 67.4688 57.1368 67.2758 56.7198 67.0748L56.3558 66.8998C56.0288 66.7408 55.7058 66.5718 55.3818 66.4048L54.7328 66.0638C54.3378 65.8538 53.9508 65.6338 53.5658 65.4098L53.1718 65.1908C52.6588 64.8878 52.1528 64.5758 51.6518 64.2588L51.2418 63.9858C50.8788 63.7518 50.5168 63.5128 50.1608 63.2668L49.8118 63.0218C49.4678 62.7798 49.1268 62.5328 48.7898 62.2838L48.3368 61.9408C48.0268 61.7038 47.7188 61.4648 47.4148 61.2198L47.0038 60.8898C46.6158 60.5718 46.2328 60.2498 45.8548 59.9208L45.7288 59.8158C45.3198 59.4568 44.9178 59.0878 44.5208 58.7178L44.1808 58.3898C43.8868 58.1108 43.5968 57.8288 43.3128 57.5388L42.9728 57.1988C42.6108 56.8288 42.2558 56.4538 41.9078 56.0728L41.8548 56.0158C41.4868 55.6138 41.1268 55.2028 40.7748 54.7868L40.4918 54.4508C40.2288 54.1348 39.9688 53.8128 39.7148 53.4898L39.4298 53.1348C39.1228 52.7378 38.8248 52.3418 38.5318 51.9398C30.4338 40.8928 27.5238 25.6568 33.9968 13.1448M51.0778 11.5188C45.7618 19.1688 46.0498 29.4118 50.1978 37.5018C50.8928 38.8578 51.6748 40.1748 52.5488 41.4268C53.3448 42.5698 54.2288 43.9278 55.2858 44.8448C55.6688 45.2668 56.0698 45.6788 56.4788 46.0828L56.7928 46.3938C57.1898 46.7788 57.5938 47.1578 58.0108 47.5258L58.0608 47.5688L58.0728 47.5808C58.5348 47.9858 59.0118 48.3748 59.4958 48.7588L59.8188 49.0108C60.3048 49.3828 60.7998 49.7488 61.3078 50.0978L61.3508 50.1308L62.0308 50.5778L62.3528 50.7908C62.7158 51.0238 63.0828 51.2498 63.4568 51.4668L63.6128 51.5588C63.9348 51.7438 64.2608 51.9258 64.5878 52.1038L64.9348 52.2838L65.6168 52.6378L65.7198 52.6848C66.1888 52.9148 66.6608 53.1378 67.1438 53.3478L67.4578 53.4778C67.8438 53.6408 68.2328 53.8008 68.6248 53.9508L69.1248 54.1348C69.4808 54.2668 69.8368 54.3878 70.1968 54.5078L70.6808 54.6628C71.1918 54.8208 71.6978 55.0218 72.2298 55.1108C99.6798 59.6578 106.017 38.5228 106.017 38.5228C100.305 46.7508 89.2418 50.6758 77.4368 47.6118C76.9128 47.4738 76.3948 47.3238 75.8818 47.1628L75.4148 47.0118C75.0498 46.8948 74.6868 46.7688 74.3278 46.6378L73.8368 46.4548C73.4428 46.3028 73.0528 46.1458 72.6658 45.9818L72.3508 45.8488C71.8658 45.6378 71.3888 45.4148 70.9188 45.1828L70.2008 44.8178L69.7868 44.6048C69.4808 44.4388 69.1768 44.2668 68.8778 44.0908L68.6608 43.9678C68.2888 43.7508 67.9228 43.5278 67.5608 43.2958L67.2288 43.0748L66.5168 42.6028C66.0108 42.2538 65.5178 41.8888 65.0328 41.5178L64.6988 41.2538C59.5318 37.1748 55.4358 31.5988 53.4888 25.2768C51.4478 18.7198 51.8878 11.3598 55.4238 5.38579M70.2708 4.86779C67.1368 9.47979 66.8288 15.2088 69.0038 20.3028C71.2968 25.7098 75.9958 29.9508 81.4808 31.9628L82.1628 32.1978L82.4628 32.2938C82.7858 32.3958 83.1068 32.5138 83.4408 32.5758C98.5978 35.5048 102.709 24.7988 103.803 23.2218C100.202 28.4068 94.1498 29.6518 86.7238 27.8488C86.1378 27.7068 85.4928 27.4948 84.9278 27.2938C84.2028 27.0348 83.4888 26.7408 82.7938 26.4078C81.4758 25.7738 80.2188 25.0058 79.0528 24.1258C72.4078 19.0838 68.2808 9.46679 72.6168 1.63379" fill="#0868AC"/>
<path d="M66.8589 96.2952H62.6329C62.3989 96.2952 62.1659 96.4832 62.1159 96.7122L60.6159 103.652L59.1159 110.592C59.0669 110.821 58.8339 111.009 58.5999 111.009H55.6089C52.6499 111.009 52.9919 108.962 53.5979 106.158L53.6159 106.073L53.6819 105.719L53.6939 105.653L53.8289 104.933L53.9739 104.162L54.1279 103.377L54.8099 100.045L55.4929 96.7132C55.5399 96.4832 55.3859 96.2942 55.1519 96.2942H50.8149C50.5809 96.2942 50.3489 96.4822 50.3009 96.7122L49.3679 101.136L48.4359 105.561L48.4339 105.567L48.3479 105.979C47.2739 110.882 47.5579 115.559 53.3959 115.706L53.5659 115.709H62.7289C62.9629 115.709 63.1959 115.521 63.2449 115.292L65.2209 106.003L67.1969 96.7132C67.2459 96.4832 67.0939 96.2962 66.8589 96.2952ZM21.6029 96.2462H16.9629C16.7279 96.2462 16.4939 96.4342 16.4419 96.6622L16.0019 98.6042L15.5619 100.546C15.5109 100.775 15.6599 100.962 15.8949 100.962H20.5709C20.8059 100.962 21.0389 100.774 21.0889 100.545L21.5139 98.6042L21.9389 96.6632C21.9879 96.4342 21.8379 96.2462 21.6029 96.2462ZM20.2569 102.29H15.5799C15.3459 102.29 15.1109 102.478 15.0589 102.706L14.4019 105.616L13.7459 108.525L13.5629 109.359L12.9319 112.329L12.3019 115.3C12.2529 115.529 12.1519 115.899 12.0769 116.121C12.0769 116.121 11.2029 118.721 9.73393 118.691L9.54993 118.687L8.27893 118.664C8.04493 118.661 7.80893 118.844 7.75393 119.071L7.26893 121.11L6.78493 123.148C6.72993 123.376 6.87793 123.564 7.11093 123.568C7.94393 123.578 9.80993 123.599 10.9389 123.599C14.6079 123.599 16.5429 121.566 17.7819 115.716L19.2329 109.002L20.5939 102.705C20.6429 102.478 20.4909 102.29 20.2569 102.29ZM106.374 100.716L106.18 99.9152L105.989 99.0952L105.892 98.6812C105.512 97.2042 104.397 96.3532 101.975 96.3532L98.2049 96.3492L94.7329 96.3442H90.8259C90.5919 96.3442 90.3599 96.5322 90.3109 96.7612L90.1379 97.5772L89.9339 98.5412L89.8769 98.8122L88.1179 107.052L86.4479 114.874C86.3979 115.104 86.3819 115.386 86.4099 115.5C86.4379 115.615 86.8889 115.709 87.1229 115.709H90.6469C90.8819 115.709 91.1789 115.667 91.3069 115.615C91.4349 115.563 91.6239 115.102 91.6709 114.873L92.2969 111.774L92.9239 108.674L92.9249 108.669L93.0089 108.256L93.7689 104.696L94.4399 101.552C94.4899 101.323 94.7209 101.136 94.9549 101.135L106.044 101.13C106.279 101.132 106.427 100.945 106.374 100.716ZM120.649 93.4762L119.795 93.4792H116.246C116.011 93.4792 115.71 93.6382 115.579 93.8322L107.73 105.33C107.598 105.524 107.447 105.496 107.395 105.268L106.817 102.735C106.765 102.506 106.53 102.319 106.295 102.319H101.25C101.015 102.319 100.876 102.503 100.94 102.728L103.201 110.649C103.265 110.875 103.27 111.245 103.212 111.473L102.227 115.306C102.168 115.534 102.312 115.719 102.547 115.719H107.534C107.768 115.719 108.008 115.533 108.066 115.306L109.052 111.473C109.11 111.244 109.273 110.906 109.415 110.718L122.157 93.8072C122.299 93.6192 122.222 93.4662 121.988 93.4682L120.649 93.4762ZM80.5629 103.395V103.391C80.5339 103.645 80.2989 103.832 80.0639 103.832H73.6669C73.4449 103.832 73.3329 103.682 73.3659 103.496L73.3719 103.481L73.3679 103.483L73.3709 103.462L73.3999 103.353C74.0109 101.729 75.2549 100.663 77.5939 100.663C80.2279 100.662 80.7419 101.948 80.5629 103.395ZM78.6859 96.0112C70.4749 96.0112 68.5289 100.995 67.4369 106.026C66.3459 111.154 66.4389 115.947 74.9369 115.947H75.9669L76.2229 115.946H76.2829L77.3029 115.943H77.3209C79.5649 115.934 81.8159 115.917 82.7269 115.91C82.9599 115.906 83.1879 115.719 83.2359 115.49L83.5799 113.809L83.6469 113.482L84.0569 111.476C84.1039 111.247 83.9509 111.058 83.7159 111.058H76.0769C73.0379 111.058 72.1359 110.251 72.4689 107.877H84.6799L84.6789 107.878L84.6869 107.877C84.8809 107.874 85.0609 107.74 85.1319 107.562L85.1609 107.456L85.1599 107.457C86.9729 100.618 86.4529 96.0122 78.6859 96.0112ZM39.8759 103.369L39.7599 103.778L38.8379 107.047L37.9159 110.314C37.8529 110.541 37.6079 110.725 37.3729 110.725H32.4929C28.7909 110.725 27.8889 107.829 28.7909 103.559C29.6919 99.1912 31.4589 96.4762 35.1029 96.2012C40.0829 95.8252 41.0789 99.3272 39.8759 103.369ZM43.2239 110.474C43.2239 110.474 45.5249 104.886 46.0469 101.66C46.7599 97.3412 44.5969 91.0752 36.2429 91.0752C27.9369 91.0752 24.3289 97.0562 22.9529 103.559C21.5769 110.109 23.3799 115.852 31.6389 115.805L38.1549 115.781L44.2439 115.759C44.4779 115.757 44.7179 115.571 44.7779 115.345L45.8389 111.299C45.8979 111.071 45.7549 110.885 45.5199 110.883L44.5029 110.877L43.4859 110.871C43.2869 110.87 43.1729 110.74 43.1969 110.569L43.2239 110.474ZM84.3439 106.733C84.3439 106.888 84.2189 107.014 84.0639 107.014C83.9099 107.014 83.7839 106.888 83.7839 106.733C83.7839 106.579 83.9089 106.454 84.0639 106.454C84.2189 106.454 84.3439 106.579 84.3439 106.733Z" fill="#ffffff"/>
</svg>
