<svg width="33" height="32" viewBox="0 0 33 32" fill="none" xmlns="http://www.w3.org/2000/svg">
<path d="M30.5 2H2.5V30H30.5V2Z" fill="#F5DE19"/>
<path d="M21.3091 23.8754C21.5476 24.36 21.9183 24.7673 22.3783 25.0504C22.8383 25.3335 23.369 25.4808 23.9091 25.4754C24.9991 25.4754 25.6961 24.9304 25.6961 24.1754C25.6961 23.2754 24.9801 22.9534 23.7801 22.4284L23.1221 22.1464C21.2221 21.3374 19.9621 20.3244 19.9621 18.1824C19.9621 16.2094 21.4621 14.7064 23.8151 14.7064C24.5768 14.6514 25.3378 14.8219 26.0033 15.1966C26.6687 15.5713 27.2091 16.1336 27.5571 16.8134L25.5001 18.1284C25.3661 17.7913 25.1328 17.5029 24.8312 17.3015C24.5295 17.1 24.1738 16.995 23.8111 17.0004C23.6528 16.9846 23.493 17.0018 23.3418 17.0512C23.1907 17.1005 23.0514 17.1808 22.933 17.2869C22.8145 17.393 22.7195 17.5227 22.6539 17.6675C22.5883 17.8124 22.5536 17.9694 22.5521 18.1284C22.5521 18.9174 23.0411 19.2374 24.1701 19.7284L24.8281 20.0104C27.0641 20.9694 28.3281 21.9464 28.3281 24.1434C28.3281 26.5124 26.4671 27.8104 23.9681 27.8104C22.9944 27.8724 22.0235 27.6514 21.1727 27.1739C20.3218 26.6964 19.6274 25.9828 19.1731 25.1194L21.3091 23.8754ZM12.0141 24.1034C12.4271 24.8364 12.8031 25.4564 13.7071 25.4564C14.5711 25.4564 15.1171 25.1184 15.1171 23.8034V14.8564H17.7481V23.8384C17.7481 26.5624 16.1481 27.8024 13.8191 27.8024C12.9958 27.8474 12.1782 27.6422 11.4738 27.2139C10.7693 26.7855 10.2109 26.154 9.87207 25.4024L12.0141 24.1034Z" fill="black"/>
</svg>
