<svg width="33" height="32" viewBox="0 0 33 32" fill="none" xmlns="http://www.w3.org/2000/svg">
<path d="M16.5 23.3648C24.232 23.3648 30.5 20.0673 30.5 15.9998C30.5 11.9322 24.232 8.63477 16.5 8.63477C8.76801 8.63477 2.5 11.9322 2.5 15.9998C2.5 20.0673 8.76801 23.3648 16.5 23.3648Z" fill="url(#paint0_radial_257_286)"/>
<path d="M16.4999 22.8176C23.9298 22.8176 29.9529 19.7651 29.9529 15.9996C29.9529 12.2342 23.9298 9.18164 16.4999 9.18164C9.06999 9.18164 3.04688 12.2342 3.04688 15.9996C3.04688 19.7651 9.06999 22.8176 16.4999 22.8176Z" fill="#6280B6"/>
<path d="M19.2247 18.1995L19.8917 14.7655C19.9868 14.4716 20.0024 14.1578 19.9371 13.856C19.8718 13.5541 19.7278 13.2748 19.5197 13.0465C18.9391 12.6342 18.2281 12.4476 17.5197 12.5215H16.3667L16.6977 10.8215C16.7038 10.7899 16.7028 10.7573 16.6947 10.7261C16.6867 10.6949 16.6719 10.6658 16.6514 10.641C16.6309 10.6161 16.6051 10.5961 16.5759 10.5824C16.5468 10.5687 16.515 10.5615 16.4827 10.5615H14.8827C14.8319 10.5615 14.7827 10.5792 14.7435 10.6114C14.7043 10.6437 14.6775 10.6887 14.6677 10.7385L13.9587 14.3845C13.9042 13.9947 13.7386 13.6288 13.4817 13.3305C13.1958 13.0441 12.8508 12.8236 12.4708 12.6842C12.0909 12.5448 11.6851 12.49 11.2817 12.5235H8.19975C8.14894 12.5235 8.09971 12.5412 8.06049 12.5734C8.02127 12.6057 7.99449 12.6507 7.98475 12.7005L6.55075 20.0805C6.54471 20.1122 6.54574 20.1448 6.55375 20.176C6.56177 20.2072 6.57657 20.2363 6.5971 20.2611C6.61764 20.2859 6.6434 20.3059 6.67255 20.3196C6.7017 20.3334 6.73352 20.3405 6.76575 20.3405H8.36875C8.41955 20.3405 8.46878 20.3229 8.50801 20.2906C8.54723 20.2583 8.574 20.2134 8.58375 20.1635L8.93075 18.3785H10.1307C10.6606 18.3927 11.1894 18.3252 11.6987 18.1785C12.1282 18.0364 12.5209 17.8012 12.8487 17.4895C13.1174 17.2448 13.3468 16.9601 13.5287 16.6455L13.2417 18.1205C13.2357 18.1522 13.2367 18.1848 13.2448 18.216C13.2528 18.2472 13.2676 18.2763 13.2881 18.3011C13.3086 18.3259 13.3344 18.3459 13.3636 18.3596C13.3927 18.3734 13.4245 18.3805 13.4567 18.3805H15.0567C15.1076 18.3805 15.1568 18.3629 15.196 18.3306C15.2352 18.2983 15.262 18.2534 15.2717 18.2035L16.0587 14.1525H17.1527C17.6187 14.1525 17.7527 14.2455 17.7927 14.2855C17.8327 14.3255 17.8927 14.4505 17.8177 14.8545L17.1827 18.1195C17.1767 18.1512 17.1777 18.1838 17.1858 18.215C17.1938 18.2462 17.2086 18.2753 17.2291 18.3001C17.2496 18.3249 17.2754 18.3449 17.3046 18.3586C17.3337 18.3724 17.3655 18.3795 17.3977 18.3795H19.0177C19.0676 18.3776 19.1153 18.3587 19.1529 18.3259C19.1906 18.2932 19.2159 18.2486 19.2247 18.1995ZM11.8297 15.3655C11.7808 15.7854 11.5816 16.1733 11.2687 16.4575C10.8758 16.7019 10.4151 16.8144 9.95375 16.7785H9.24175L9.75675 14.1275H10.6777C11.3547 14.1275 11.6267 14.2725 11.7367 14.3935C11.8207 14.5395 11.8724 14.7018 11.8884 14.8695C11.9044 15.0371 11.8844 15.2062 11.8297 15.3655Z" fill="white"/>
<path d="M26.0464 13.3322C25.7604 13.0458 25.4155 12.8252 25.0355 12.6859C24.6555 12.5465 24.2497 12.4917 23.8464 12.5252H20.7554C20.7046 12.5252 20.6554 12.5428 20.6162 12.5751C20.5769 12.6074 20.5502 12.6523 20.5404 12.7022L19.1064 20.0822C19.1004 20.1139 19.1014 20.1465 19.1094 20.1777C19.1174 20.2089 19.1322 20.2379 19.1528 20.2628C19.1733 20.2876 19.1991 20.3076 19.2282 20.3213C19.2574 20.3351 19.2892 20.3422 19.3214 20.3422H20.9294C20.9802 20.3422 21.0294 20.3246 21.0687 20.2923C21.1079 20.26 21.1347 20.2151 21.1444 20.1652L21.4914 18.3802H22.6914C23.2212 18.3943 23.7501 18.3269 24.2594 18.1802C24.6888 18.0381 25.0816 17.8028 25.4094 17.4912C25.9709 16.9852 26.3492 16.3077 26.4854 15.5642C26.593 15.1839 26.6093 14.7835 26.533 14.3957C26.4568 14.0078 26.29 13.6435 26.0464 13.3322ZM24.3794 15.3662C24.3305 15.786 24.1312 16.1739 23.8184 16.4582C23.4245 16.7029 22.9626 16.815 22.5004 16.7782H21.7904L22.3054 14.1272H23.2264C23.9034 14.1272 24.1754 14.2722 24.2854 14.3932C24.3696 14.5393 24.4216 14.7017 24.4378 14.8695C24.454 15.0374 24.4341 15.2067 24.3794 15.3662Z" fill="white"/>
<path d="M10.6777 13.9076C10.8935 13.8805 11.1125 13.8963 11.3221 13.9544C11.5317 14.0124 11.7277 14.1114 11.8987 14.2456C12.0091 14.4156 12.0795 14.6084 12.1047 14.8095C12.1298 15.0106 12.1089 15.2147 12.0437 15.4066C11.9866 15.8791 11.7582 16.3142 11.4017 16.6296C10.9719 16.9065 10.4637 17.0363 9.95374 16.9996H8.97574L9.57574 13.9106L10.6777 13.9076ZM6.76074 20.1236H8.36874L8.74974 18.1616H10.1267C10.6336 18.1754 11.1395 18.111 11.6267 17.9706C12.0266 17.8386 12.3921 17.6193 12.6967 17.3286C13.2241 16.8542 13.5793 16.2184 13.7067 15.5206C13.8077 15.1736 13.8254 14.8077 13.7585 14.4526C13.6916 14.0975 13.542 13.7631 13.3217 13.4766C13.0562 13.214 12.7365 13.0124 12.3851 12.8859C12.0336 12.7595 11.6588 12.7113 11.2867 12.7446H8.19974L6.76074 20.1236Z" fill="#000004"/>
<path d="M14.8872 10.7822H16.4872L16.1002 12.7442H17.5212C18.1739 12.6759 18.8296 12.8418 19.3712 13.2122C19.5505 13.416 19.6731 13.6633 19.7266 13.9294C19.7801 14.1955 19.7628 14.471 19.6762 14.7282L19.0092 18.1622H17.3902L18.0252 14.8972C18.0695 14.7726 18.0852 14.6397 18.0714 14.5082C18.0576 14.3767 18.0144 14.2499 17.9452 14.1372C17.7137 13.9713 17.4276 13.8998 17.1452 13.9372H15.8702L15.0482 18.1652H13.4482L14.8872 10.7822Z" fill="#000004"/>
<path d="M23.2266 13.9076C23.4423 13.8805 23.6613 13.8963 23.8709 13.9544C24.0805 14.0124 24.2765 14.1114 24.4476 14.2456C24.558 14.4156 24.6284 14.6084 24.6535 14.8095C24.6786 15.0106 24.6578 15.2147 24.5926 15.4066C24.5354 15.8791 24.307 16.3142 23.9506 16.6296C23.5199 16.9071 23.0106 17.037 22.4996 16.9996H21.5216L22.1216 13.9106L23.2266 13.9076ZM19.3096 20.1236H20.9176L21.2986 18.1616H22.6756C23.1824 18.1754 23.6884 18.111 24.1756 17.9706C24.5754 17.8386 24.9409 17.6193 25.2456 17.3286C25.7729 16.8542 26.1281 16.2184 26.2556 15.5206C26.3565 15.1736 26.3742 14.8077 26.3073 14.4526C26.2404 14.0975 26.0908 13.7631 25.8706 13.4766C25.605 13.214 25.2854 13.0124 24.9339 12.8859C24.5824 12.7595 24.2076 12.7113 23.8356 12.7446H20.7436L19.3096 20.1236Z" fill="#000004"/>
<defs>
<radialGradient id="paint0_radial_257_286" cx="0" cy="0" r="1" gradientUnits="userSpaceOnUse" gradientTransform="translate(10.906 11.2248) scale(18.384)">
<stop stop-color="white"/>
<stop offset="0.5" stop-color="#4C6B96"/>
<stop offset="1" stop-color="#231F20"/>
</radialGradient>
</defs>
</svg>
