<svg width="33" height="32" viewBox="0 0 33 32" fill="none" xmlns="http://www.w3.org/2000/svg">
<path d="M16.6711 18.7002C16.1901 18.9212 15.6631 19.2092 14.6081 19.7882C14.2081 20.0132 13.7901 20.2382 13.4011 20.4502C13.3741 20.4232 13.3461 20.3892 13.3191 20.3612C11.2321 18.1312 7.37213 16.5562 7.53613 13.5612C7.59713 12.4702 7.97213 9.60617 14.9491 6.12817C20.6911 3.29817 25.2601 4.08217 26.0491 5.82117C27.1831 8.30017 23.6001 12.9132 17.6701 13.5822C17.0138 13.7153 16.336 13.6992 15.6867 13.5351C15.0375 13.371 14.4334 13.0631 13.9191 12.6342C13.6051 12.2932 13.5581 12.2732 13.4421 12.3412C13.2511 12.4412 13.3741 12.7502 13.4421 12.9272C13.6683 13.3367 13.9743 13.6968 14.3421 13.986C14.7098 14.2752 15.1318 14.4878 15.5831 14.6112C17.9167 15.1156 20.3498 14.8746 22.5391 13.9222C26.1331 12.5312 28.9391 8.66417 28.1171 5.42217C27.2921 2.13517 21.8361 1.05117 16.6741 2.88517C13.4414 3.97456 10.4547 5.68948 7.88413 7.93217C5.04013 10.5922 4.59013 12.9042 4.77413 13.8722C5.43613 17.3092 10.1741 19.5462 12.0741 21.2032C11.9741 21.2582 11.8901 21.3032 11.8151 21.3462C10.8671 21.8172 7.25313 23.7062 6.35213 25.7042C5.32913 27.9682 6.51613 29.5912 7.30013 29.8092C8.48162 30.0922 9.72199 29.9991 10.848 29.5431C11.9741 29.087 12.9296 28.2906 13.5811 27.2652C14.1344 26.4148 14.4741 25.4435 14.5715 24.4337C14.6688 23.4239 14.5208 22.4055 14.1401 21.4652C14.3647 21.286 14.6043 21.1264 14.8561 20.9882C15.3401 20.7022 15.8011 20.4202 16.2101 20.2022C17.6105 19.5462 19.1387 19.2085 20.6851 19.2132C23.9311 19.5952 24.5721 21.6202 24.4491 22.4732C24.3916 22.7758 24.2699 23.0626 24.0922 23.3143C23.9146 23.5659 23.685 23.7766 23.4191 23.9322C23.1941 24.0752 23.1191 24.1232 23.1391 24.2252C23.1661 24.3752 23.2751 24.3682 23.4661 24.3412C23.9538 24.187 24.3835 23.889 24.6987 23.4862C25.0139 23.0834 25.1998 22.5946 25.2321 22.0842C25.3321 20.0842 23.4251 17.8902 20.0491 17.9102C19.0383 17.9119 18.0375 18.1113 17.1031 18.4972C16.9531 18.5592 16.8075 18.6258 16.6661 18.6972L16.6711 18.7002ZM11.8461 26.5392C10.7681 27.7122 9.26813 28.1552 8.62013 27.7802C7.92013 27.3802 8.19713 25.6452 9.52013 24.4042C10.3037 23.6982 11.1506 23.0658 12.0501 22.5152C12.2071 22.4152 12.4391 22.2832 12.7181 22.1152C12.7661 22.0882 12.7931 22.0742 12.7931 22.0742L12.9571 21.9742C13.1931 22.7653 13.2146 23.6049 13.0193 24.407C12.8241 25.2091 12.4192 25.945 11.8461 26.5392Z" fill="#CD6799"/>
</svg>
